#!OML:ASF I:\Actors\actors\Patient Classification 1\Patient 1\Session 1\Subject1.ASF
:FULLY-SPECIFIED
:DEGREES
348
root 0.700505 17.5899 8.33474 9.16501 0.0243271 -10.216
lowerback 5.58974 1.34901 11.4865
upperback -7.32301 2.98518 -0.988481
thorax -10.533 0.486758 -7.96188
lowerneck -16.0562 -6.49671 -2.78049
upperneck 23.7894 -11.6793 11.668
head 11.3091 -4.21139 2.96665
rclavicle 2.49475e-014 -2.8625e-014
rhumerus -37.9543 32.607 -120.931
rradius 120.808
rwrist 4.07502
rhand -10.8516 -44.2561
rfingers 7.12502
rthumb 15.1635 -73.6806
lclavicle 2.49475e-014 -2.8625e-014
lhumerus -40.3156 -43.0111 108.745
lradius 115.927
lwrist 18.8431
lhand -42.4194 -33.6592
lfingers 7.12502
lthumb -15.2992 -4.24504
rfemur -10.1757 20.52 26.5396
rtibia 10.8859
rfoot -13.2908 -17.3308
rtoes -1.85279
lfemur -0.891135 -37.9657 -5.20323
ltibia -1.72152
lfoot -17.2039 45.9029
ltoes 4.50378
349
root 0.697007 17.5972 8.36966 9.62857 -0.212616 -9.63187
lowerback 4.81596 1.39018 10.6829
upperback -7.46927 2.84898 -1.17821
thorax -10.2648 0.489183 -7.66367
lowerneck -15.9197 -6.39913 -2.74451
upperneck 23.4574 -11.6821 12.2985
head 11.207 -4.15726 3.18912
rclavicle -9.69075e-015 -1.11319e-014
rhumerus -36.1258 31.8558 -119.497
rradius 120.395
rwrist 2.73208
rhand -9.9179 -44.8418
rfingers 7.12502
rthumb 16.0627 -74.196
lclavicle -9.69075e-015 -1.11319e-014
lhumerus -43.0022 -43.4375 110.856
lradius 115.499
lwrist 17.3101
lhand -43.1174 -34.1629
lfingers 7.12502
lthumb -15.9714 -4.80131
rfemur -10.5349 20.5625 25.7047
rtibia 10.7295
rfoot -13.267 -17.2085
rtoes -1.89657
lfemur -0.911352 -38.8847 -5.90335
ltibia -1.95676
lfoot -18.1733 46.8888
ltoes 5.58253
350
root 0.70706 17.5947 8.3914 9.74464 -0.455479 -9.68436
lowerback 4.55407 1.38808 10.8077
upperback -7.53122 2.82177 -1.26516
thorax -10.1782 0.465249 -7.81619
lowerneck -15.8531 -6.43124 -2.7331
upperneck 23.2782 -11.8505 12.7981
head 11.1837 -4.18687 3.34169
rclavicle -1.19768e-014 -4.45278e-014
rhumerus -33.8959 30.7803 -117.713
rradius 119.79
rwrist 1.93671
rhand -8.97766 -44.821
rfingers 7.12502
rthumb 16.9679 -74.0998
lclavicle -1.19768e-014 -4.45278e-014
lhumerus -45.7043 -43.9525 113.158
lradius 115.082
lwrist 17.0744
lhand -43.7146 -33.4556
lfingers 7.12502
lthumb -16.5465 -4.14107
rfemur -10.511 20.4214 25.7368
rtibia 10.61
rfoot -13.1909 -16.8548
rtoes -2.2462
lfemur -0.53469 -39.3824 -6.13134
ltibia -2.19315
lfoot -18.9292 47.4953
ltoes 6.48145
351
root 0.727368 17.5813 8.39341 9.4445 -0.773111 -10.5686
lowerback 5.05239 1.4407 12.06
upperback -7.51969 3.08614 -1.2392
thorax -10.3909 0.479247 -8.5562
lowerneck -15.7644 -6.62329 -2.81391
upperneck 23.0562 -12.1808 13.1745
head 11.152 -4.31629 3.43759
rclavicle 5.56597e-015 1.43125e-014
rhumerus -31.7441 29.2107 -115.83
rradius 119.022
rwrist 2.0502
rhand -8.47852 -44.4343
rfingers 7.12502
rthumb 17.4484 -73.6712
lclavicle 5.56597e-015 1.43125e-014
lhumerus -48.4782 -45.0037 115.733
lradius 114.668
lwrist 17.9049
lhand -43.5603 -32.8644
lfingers 7.12502
lthumb -16.3979 -3.53758
rfemur -10.0818 20.2026 26.8919
rtibia 10.5978
rfoot -13.0106 -16.3093
rtoes -3.07433
lfemur 0.317945 -39.1673 -5.66355
ltibia -2.46538
lfoot -19.1636 47.5808
ltoes 6.85982
352
root 0.737832 17.5792 8.3976 9.40172 -1.30832 -10.4355
lowerback 5.27543 1.64905 12.1152
upperback -7.58195 3.38417 -1.5091
thorax -10.5102 0.593546 -8.93975
lowerneck -15.6677 -6.79657 -3.0356
upperneck 22.8738 -12.4973 13.7161
head 11.1576 -4.43133 3.62101
rclavicle -3.57812e-015 3.18055e-015
rhumerus -29.8207 27.2281 -114.266
rradius 118.316
rwrist 2.76417
rhand -8.27771 -44.0919
rfingers 7.12502
rthumb 17.6416 -73.3116
lclavicle -3.57812e-015 3.18055e-015
lhumerus -51.1503 -46.4495 118.345
lradius 114.208
lwrist 18.3544
lhand -43.203 -32.9784
lfingers 7.12502
lthumb -16.0539 -3.62343
rfemur -10.0553 20.3069 26.7102
rtibia 10.6329
rfoot -12.8589 -16.0266
rtoes -3.56329
lfemur 0.682613 -39.0668 -6.15053
ltibia -2.4334
lfoot -19.6491 47.7923
ltoes 7.48976
353
root 0.736346 17.5893 8.40713 9.67316 -1.87147 -9.35852
lowerback 5.06257 1.8933 10.9221
upperback -7.73382 3.53212 -1.91815
thorax -10.5226 0.73538 -8.72613
lowerneck -15.3789 -6.99309 -3.28286
upperneck 22.3704 -12.7238 14.0471
head 10.9803 -4.55882 3.74301
rclavicle 2.8625e-014 -2.70347e-014
rhumerus -28.492 24.9373 -113.273
rradius 118.014
rwrist 4.00781
rhand -6.64967 -43.7555
rfingers 7.12502
rthumb 19.2077 -72.827
lclavicle 2.8625e-014 -2.70347e-014
lhumerus -52.691 -47.4264 120.056
lradius 113.797
lwrist 18.3872
lhand -42.7577 -31.9883
lfingers 7.12502
lthumb -15.625 -2.59932
rfemur -10.4957 20.6361 25.2658
rtibia 10.7138
rfoot -12.7877 -16.0313
rtoes -3.69904
lfemur 0.334649 -38.9559 -7.31307
ltibia -2.13222
lfoot -20.0741 47.9474
ltoes 8.11497
354
root 0.740191 17.5914 8.41109 9.74202 -2.05338 -9.25158
lowerback 5.13702 1.9932 10.8044
upperback -7.83707 3.66557 -1.96646
thorax -10.6555 0.793406 -8.7379
lowerneck -15.2156 -7.12951 -3.44703
upperneck 22.0368 -12.8171 14.0333
head 10.8428 -4.64246 3.747
rclavicle 4.37326e-015 5.24792e-014
rhumerus -28.1876 24.8098 -112.706
rradius 117.849
rwrist 3.55099
rhand -8.66288 -44.1554
rfingers 7.12502
rthumb 17.2709 -73.408
lclavicle 4.37326e-015 5.24792e-014
lhumerus -52.346 -47.5709 120.146
lradius 113.584
lwrist 19.018
lhand -42.7442 -30.9944
lfingers 7.12502
lthumb -15.612 -1.60439
rfemur -10.5868 20.6572 25.1043
rtibia 10.7343
rfoot -12.7117 -15.9322
rtoes -3.94537
lfemur 0.0757828 -38.1452 -7.30945
ltibia -1.95192
lfoot -19.3537 47.4496
ltoes 7.25701
355
root 0.75625 17.5815 8.40886 9.51533 -1.78523 -10.4094
lowerback 5.62837 1.94703 12.2607
upperback -7.86465 3.85781 -1.66619
thorax -10.921 0.757216 -9.29024
lowerneck -15.0232 -7.18844 -3.47507
upperneck 21.6214 -12.7564 13.7901
head 10.6252 -4.67469 3.66971
rclavicle -6.85807e-015 0
rhumerus -28.4451 25.6812 -112.514
rradius 117.827
rwrist 3.47483
rhand -9.47995 -43.5073
rfingers 7.12502
rthumb 16.4844 -72.827
lclavicle -6.85807e-015 0
lhumerus -50.5514 -47.242 118.86
lradius 113.625
lwrist 20.1644
lhand -41.9121 -29.1973
lfingers 7.12502
lthumb -14.8105 0.253495
rfemur -10.1482 20.2614 26.6201
rtibia 10.6597
rfoot -12.6545 -15.6445
rtoes -4.20608
lfemur 0.21021 -37.0466 -6.01513
ltibia -1.96092
lfoot -18.0957 46.5102
ltoes 5.5337
356
root 0.744523 17.5946 8.4217 9.84295 -1.78605 -9.85657
lowerback 5.29314 2.06323 11.4109
upperback -8.04343 3.88082 -1.73523
thorax -10.9361 0.829195 -8.87028
lowerneck -14.7767 -7.22445 -3.61564
upperneck 21.1522 -12.6792 13.7363
head 10.4015 -4.69214 3.68389
rclavicle -4.07509e-015 -9.54166e-015
rhumerus -29.434 27.3051 -112.86
rradius 117.996
rwrist 3.43173
rhand -11.1258 -42.9653
rfingers 7.12502
rthumb 14.8993 -72.4095
lclavicle -4.07509e-015 -9.54166e-015
lhumerus -48.0506 -46.7224 116.772
lradius 113.815
lwrist 21.2721
lhand -41.7726 -27.9961
lfingers 7.12502
lthumb -14.6761 1.46446
rfemur -10.5412 20.5848 25.8449
rtibia 10.6792
rfoot -12.7029 -16.0174
rtoes -3.98836
lfemur -0.418118 -37.0046 -6.28618
ltibia -1.72895
lfoot -18.1311 46.4386
ltoes 5.48196
